<?xml version="1.0" standalone="no"?>
<!DOCTYPE svg PUBLIC "-//W3C//DTD SVG 20010904//EN"
 "http://www.w3.org/TR/2001/REC-SVG-20010904/DTD/svg10.dtd">
<svg version="1.0" xmlns="http://www.w3.org/2000/svg"
 width="1024.000000pt" height="1024.000000pt" viewBox="0 0 1024.000000 1024.000000"
 preserveAspectRatio="xMidYMid meet">

<g transform="translate(0.000000,1024.000000) scale(0.100000,-0.100000)"
fill="#C6C5C5" stroke="none">
<path d="M7077 8282 l-1957 -1957 -1953 1953 c-1073 1073 -1957 1952 -1962
1952 -5 0 -279 -269 -607 -597 l-598 -598 1957 -1957 1958 -1958 -1958 -1958
-1957 -1957 602 -603 603 -602 1957 1957 1958 1958 1958 -1958 1957 -1957 603
602 602 603 -1957 1957 -1958 1958 1958 1958 1957 1957 -603 603 -602 602
-1958 -1958z"/>
</g>
</svg>
