<?xml version="1.0" standalone="no"?>
<!DOCTYPE svg PUBLIC "-//W3C//DTD SVG 20010904//EN"
 "http://www.w3.org/TR/2001/REC-SVG-20010904/DTD/svg10.dtd">
<svg version="1.0" xmlns="http://www.w3.org/2000/svg"
 width="512.000000pt" height="512.000000pt" viewBox="0 0 512.000000 512.000000"
 preserveAspectRatio="xMidYMid meet">

<g transform="translate(0.000000,512.000000) scale(0.100000,-0.100000)"
fill="#171717" stroke="none">
<path d="M1244 4679 c-85 -14 -215 -58 -291 -99 -243 -130 -405 -331 -490
-605 -27 -88 -27 -95 -27 -330 1 -258 16 -401 70 -645 172 -771 618 -1455
1263 -1933 402 -299 892 -507 1392 -592 326 -55 649 -59 812 -11 353 105 592
352 693 716 14 51 18 102 19 230 0 144 -3 176 -24 249 -27 94 -67 154 -122
183 -43 22 -1334 318 -1387 318 -48 -1 -109 -29 -147 -68 -17 -17 -56 -80 -87
-139 -86 -164 -70 -154 -173 -100 -206 110 -372 235 -535 403 -160 164 -274
323 -369 512 l-41 81 142 73 c91 47 149 84 164 103 33 43 54 98 54 139 0 44
-297 1331 -315 1366 -20 38 -65 77 -115 99 -112 49 -346 73 -486 50z"/>
<path d="M2685 4671 c-130 -59 -164 -225 -69 -331 45 -50 96 -67 219 -74 148
-9 276 -33 406 -76 233 -77 404 -184 585 -364 274 -275 416 -595 440 -991 7
-123 24 -174 74 -219 106 -95 272 -61 331 69 51 111 -4 511 -104 772 -197 510
-600 913 -1110 1110 -261 100 -661 155 -772 104z"/>
<path d="M2700 3828 c-19 -7 -53 -30 -75 -53 -64 -63 -82 -153 -46 -230 39
-87 124 -135 236 -135 130 0 297 -74 401 -178 119 -119 179 -246 194 -412 9
-107 24 -152 66 -194 86 -86 214 -86 300 -1 54 55 69 109 60 226 -19 256 -151
533 -332 698 -188 172 -430 275 -669 286 -62 3 -113 0 -135 -7z"/>
</g>
</svg>
