<?xml version="1.0" standalone="no"?>
<!DOCTYPE svg PUBLIC "-//W3C//DTD SVG 20010904//EN"
 "http://www.w3.org/TR/2001/REC-SVG-20010904/DTD/svg10.dtd">
<svg version="1.0" xmlns="http://www.w3.org/2000/svg"
 width="512.000000pt" height="512.000000pt" viewBox="0 0 512.000000 512.000000"
 preserveAspectRatio="xMidYMid meet">

<g transform="translate(0.000000,512.000000) scale(0.100000,-0.100000)"
fill="#c6c5c5" stroke="none">
<path d="M314 5100 c-140 -49 -247 -157 -295 -298 -18 -53 -19 -121 -19 -2242
0 -2130 0 -2188 19 -2243 49 -142 156 -249 299 -298 53 -18 121 -19 2242 -19
2130 0 2188 0 2243 19 142 49 249 156 298 299 18 53 19 121 19 2242 0 2121 -1
2189 -19 2242 -49 143 -156 250 -298 299 -55 19 -112 19 -2247 18 -2098 0
-2193 -1 -2242 -19z m1026 -582 c376 -137 482 -607 200 -888 -213 -213 -541
-211 -756 4 -82 83 -126 164 -150 276 -57 270 127 555 404 625 82 21 219 13
302 -17z m2483 -1263 c369 -64 601 -301 697 -709 49 -204 52 -274 57 -1092 5
-854 7 -823 -59 -864 -31 -19 -50 -20 -368 -20 -309 0 -337 2 -363 19 -66 43
-61 -10 -68 821 -6 826 -3 794 -67 928 -33 71 -113 153 -177 181 -73 32 -189
47 -270 33 -191 -31 -308 -157 -376 -402 -23 -84 -23 -89 -29 -795 -5 -770 -3
-735 -61 -769 -23 -14 -71 -16 -351 -16 -303 0 -325 1 -355 20 -67 41 -63 -50
-63 1315 0 1127 1 1239 16 1265 36 59 40 60 403 60 291 0 335 -2 357 -16 45
-30 54 -63 54 -194 0 -66 3 -120 8 -120 4 1 25 26 47 57 114 158 303 265 535
302 93 15 340 12 433 -4z m-2305 -45 c65 -40 62 34 62 -1312 0 -1166 -1 -1225
-18 -1257 -37 -69 -49 -71 -403 -71 -312 0 -316 0 -350 23 -18 12 -39 34 -46
47 -10 20 -13 294 -13 1269 l0 1243 39 39 39 39 328 0 c312 0 331 -1 362 -20z"/>
</g>
</svg>
