<?xml version="1.0" standalone="no"?>
<!DOCTYPE svg PUBLIC "-//W3C//DTD SVG 20010904//EN"
 "http://www.w3.org/TR/2001/REC-SVG-20010904/DTD/svg10.dtd">
<svg version="1.0" xmlns="http://www.w3.org/2000/svg"
 width="864.000000pt" height="868.000000pt" viewBox="0 0 864.000000 868.000000"
 preserveAspectRatio="xMidYMid meet">

<g transform="translate(0.000000,868.000000) scale(0.100000,-0.100000)"
fill="#171717" stroke="none">
<path d="M4140 8669 c-594 -24 -1146 -165 -1695 -434 -425 -209 -766 -450
-1109 -785 -764 -747 -1212 -1716 -1286 -2780 -55 -804 124 -1643 499 -2330
l60 -110 -250 -912 c-137 -502 -275 -1002 -305 -1111 -31 -110 -53 -201 -50
-205 8 -7 -10 -11 661 166 314 83 805 212 1093 288 l523 137 167 -81 c439
-213 880 -343 1387 -409 114 -15 209 -18 510 -18 327 0 389 3 535 23 500 68
922 195 1355 407 605 296 1137 737 1545 1280 587 781 883 1711 857 2690 -17
641 -152 1203 -423 1764 -98 204 -155 303 -290 506 -405 611 -954 1105 -1608
1445 -520 271 -1172 446 -1730 465 -83 3 -176 7 -206 8 -30 2 -138 0 -240 -4z
m510 -749 c1065 -96 2028 -663 2633 -1550 174 -256 313 -529 407 -796 17 -49
33 -96 36 -104 3 -8 5 -17 5 -20 1 -3 5 -11 11 -17 6 -7 8 -13 4 -13 -3 0 0
-16 8 -35 8 -19 13 -35 10 -35 -3 0 -2 -6 3 -12 4 -7 8 -17 10 -23 2 -9 6 -29
18 -75 13 -51 16 -66 20 -85 2 -11 6 -31 9 -45 20 -86 35 -164 53 -291 14 -98
17 -192 17 -444 1 -348 -7 -433 -64 -715 -134 -668 -473 -1300 -959 -1789
-138 -139 -252 -239 -396 -347 -832 -626 -1906 -855 -2924 -623 -359 82 -670
204 -998 392 -83 48 -157 87 -165 87 -7 0 -310 -78 -673 -174 -363 -95 -661
-172 -663 -171 -2 2 75 291 171 642 97 351 177 645 179 654 1 9 -32 72 -75
142 -352 568 -528 1155 -544 1814 -7 262 13 536 52 708 2 11 6 31 9 45 2 14 7
39 11 55 3 17 8 39 10 50 4 19 7 34 20 85 3 11 8 30 11 43 8 32 10 40 17 57 4
8 9 26 11 40 3 14 5 26 7 28 1 1 2 5 4 10 1 4 5 14 8 22 4 8 23 62 43 120 229
667 689 1280 1284 1711 515 374 1150 608 1795 662 97 8 480 6 585 -3z"/>
<path d="M2693 6341 c-73 -27 -132 -72 -213 -163 -131 -148 -213 -284 -264
-440 -73 -225 -79 -499 -15 -745 63 -245 170 -461 382 -768 258 -376 407 -558
681 -831 420 -419 779 -657 1271 -841 401 -151 673 -224 888 -239 123 -9 322
11 415 42 235 78 509 281 588 435 49 97 86 267 91 422 l6 137 -35 33 c-33 31
-723 373 -888 440 -92 37 -174 46 -218 23 -17 -9 -62 -58 -101 -110 -115 -156
-318 -393 -356 -416 -49 -30 -82 -24 -246 50 -507 229 -845 497 -1165 923
-106 141 -206 295 -231 355 -21 50 -4 88 78 178 119 131 189 223 229 305 48
95 53 166 19 246 -11 26 -81 194 -154 373 -171 418 -204 488 -254 542 -55 61
-86 68 -287 68 -140 -1 -178 -4 -221 -19z"/>
</g>
</svg>
