<?xml version="1.0" standalone="no"?>
<!DOCTYPE svg PUBLIC "-//W3C//DTD SVG 20010904//EN"
 "http://www.w3.org/TR/2001/REC-SVG-20010904/DTD/svg10.dtd">
<svg version="1.0" xmlns="http://www.w3.org/2000/svg"
 width="540.000000pt" height="540.000000pt" viewBox="0 0 540.000000 540.000000"
 preserveAspectRatio="xMidYMid meet">

<g transform="translate(0.000000,540.000000) scale(0.100000,-0.100000)"
fill="#000000" stroke="none">
<path d="M2284 5179 c-45 -11 -117 -66 -138 -108 -8 -14 -26 -88 -42 -165 -23
-116 -30 -139 -48 -146 -12 -5 -61 -23 -111 -40 -49 -18 -148 -60 -220 -95
-179 -87 -289 -160 -489 -327 l-38 -32 -122 41 c-66 23 -134 44 -149 48 -45 9
-132 -21 -169 -58 -18 -18 -116 -177 -217 -352 -171 -295 -185 -323 -189 -376
-8 -103 2 -117 202 -301 l49 -45 -21 -104 c-37 -185 -45 -274 -39 -459 4 -133
12 -203 31 -295 14 -66 26 -127 26 -136 0 -9 -47 -58 -104 -109 -127 -111
-150 -150 -144 -243 4 -59 12 -76 194 -392 218 -378 225 -386 337 -393 53 -3
80 2 190 41 l129 45 51 -46 c205 -185 546 -377 784 -441 l39 -11 23 -117 c12
-65 27 -135 33 -155 15 -51 60 -102 111 -127 42 -20 58 -21 439 -21 394 0 395
0 439 23 81 43 96 78 149 339 l11 56 112 38 c231 79 498 232 677 387 l85 74
130 -44 c75 -25 148 -43 174 -43 53 0 121 31 154 70 27 32 370 622 386 663 6
16 11 48 11 72 0 70 -42 132 -158 236 -68 60 -101 96 -98 106 3 8 15 58 25
111 55 269 55 475 1 742 -11 52 -21 104 -22 115 -2 14 27 48 106 120 118 108
145 150 146 225 0 58 -20 99 -222 450 -147 253 -170 288 -210 316 -77 53 -111
52 -280 -2 l-147 -47 -54 50 c-186 170 -455 325 -714 413 l-101 34 -27 135
c-36 180 -58 221 -145 267 -32 18 -65 19 -410 21 -208 1 -393 -3 -416 -8z
m738 -221 c3 -7 20 -90 38 -184 l34 -172 100 -27 c314 -84 636 -272 860 -503
l48 -50 176 59 c97 32 179 56 183 51 3 -4 43 -72 89 -152 46 -80 121 -209 166
-287 l82 -141 -139 -123 c-76 -67 -139 -126 -139 -130 0 -5 11 -52 25 -106 43
-173 58 -287 58 -463 1 -186 -10 -278 -55 -464 -30 -127 -30 -130 -11 -145 78
-64 253 -225 253 -233 0 -6 -75 -140 -167 -298 l-166 -287 -176 58 -176 59
-80 -76 c-93 -90 -210 -182 -313 -248 -147 -95 -390 -199 -578 -246 l-41 -10
-27 -138 c-15 -75 -32 -158 -38 -185 l-10 -47 -341 2 -341 3 -36 180 -36 179
-34 12 c-19 7 -75 24 -124 39 -272 81 -546 242 -763 448 l-91 87 -175 -59
-176 -60 -171 296 c-95 162 -170 296 -168 297 2 1 64 56 138 121 74 66 136
120 138 121 1 0 -11 55 -27 121 -47 194 -56 264 -55 468 0 205 14 314 60 484
21 77 23 96 12 106 -7 6 -70 62 -140 124 -107 94 -126 116 -118 130 27 51 323
557 329 564 4 4 86 -19 182 -52 l174 -59 100 97 c216 207 479 358 783 450
l127 38 36 179 c20 98 37 180 38 182 1 1 154 2 340 2 262 0 340 -3 343 -12z"/>
<path d="M1700 3443 c-28 -25 -48 -86 -220 -645 -170 -554 -190 -625 -190
-688 0 -80 14 -111 60 -130 74 -31 138 15 149 107 4 32 18 91 30 131 l23 72
216 -2 216 -3 28 -85 c15 -47 27 -102 28 -123 0 -70 55 -116 123 -103 55 10
80 46 85 120 4 60 -8 103 -189 692 -214 696 -209 684 -288 684 -30 0 -48 -7
-71 -27z m144 -695 l72 -233 -144 -3 c-80 -1 -146 -1 -148 1 -2 2 29 109 69
239 39 130 74 235 76 232 2 -2 36 -108 75 -236z"/>
<path d="M2511 3454 c-51 -37 -51 -34 -50 -731 0 -475 3 -657 12 -683 27 -80
136 -92 184 -21 22 33 23 41 23 262 l0 229 190 0 c166 0 196 3 244 20 72 27
139 88 173 158 l28 57 0 245 c0 240 -1 246 -24 295 -32 63 -93 124 -156 156
-49 23 -56 24 -325 27 -244 2 -278 1 -299 -14z m535 -209 c56 -23 64 -56 64
-255 0 -268 -2 -270 -260 -270 l-170 0 0 270 0 270 165 0 c123 0 175 -4 201
-15z"/>
<path d="M3570 3443 c-22 -20 -33 -40 -37 -70 -5 -39 -2 -46 30 -78 19 -19 44
-35 56 -35 l21 0 -2 -537 -3 -537 -33 -8 c-36 -10 -72 -57 -72 -96 0 -36 27
-80 60 -97 40 -21 279 -21 318 -1 60 31 74 117 27 166 -15 16 -37 30 -49 32
l-21 3 -3 538 c-2 519 -2 537 17 537 28 0 68 37 81 74 9 27 8 42 -3 69 -26 61
-44 67 -209 67 -147 0 -148 0 -178 -27z"/>
</g>
</svg>
