<?xml version="1.0" standalone="no"?>
<!DOCTYPE svg PUBLIC "-//W3C//DTD SVG 20010904//EN"
 "http://www.w3.org/TR/2001/REC-SVG-20010904/DTD/svg10.dtd">
<svg version="1.0" xmlns="http://www.w3.org/2000/svg"
 width="1024.000000pt" height="1024.000000pt" viewBox="0 0 1024.000000 1024.000000"
 preserveAspectRatio="xMidYMid meet">

<g transform="translate(0.000000,1024.000000) scale(0.100000,-0.100000)"
fill="#000000" stroke="none">
<path d="M6617 9383 c-4 -3 -7 -163 -7 -355 l0 -348 514 0 c283 0 517 -4 520
-8 5 -9 -2916 -2932 -2930 -2932 -5 0 -349 340 -764 755 l-755 755 -597 -597
-598 -598 -162 162 -163 163 30 87 c40 118 164 364 249 493 196 298 429 534
716 725 337 225 672 352 1085 411 181 27 506 24 693 -5 514 -79 945 -282 1341
-634 l108 -95 236 236 c131 131 237 242 237 247 0 12 -125 128 -250 231 -480
398 -1108 655 -1745 714 -142 13 -439 13 -580 0 -418 -39 -799 -149 -1175
-340 -874 -444 -1515 -1289 -1699 -2240 -51 -263 -56 -322 -55 -635 0 -324 12
-443 70 -705 250 -1122 1108 -2045 2215 -2380 309 -93 589 -134 929 -134 308
0 532 28 810 100 239 62 393 120 638 241 83 41 156 73 162 71 5 -2 299 -291
652 -643 1049 -1044 1175 -1166 1248 -1208 106 -61 207 -89 341 -95 142 -5
241 16 369 80 67 34 107 64 188 142 117 113 158 165 206 262 51 104 70 191 70
319 0 134 -17 205 -80 335 l-46 95 -908 910 -908 910 45 75 c118 196 254 516
322 755 143 511 157 1065 39 1585 -25 110 -102 377 -113 388 -1 2 -126 -120
-278 -271 l-274 -273 18 -95 c47 -246 52 -637 10 -874 -75 -422 -235 -789
-495 -1135 -86 -116 -330 -362 -446 -452 -322 -249 -685 -415 -1075 -492 -180
-35 -296 -46 -497 -46 -414 1 -762 84 -1133 270 -745 373 -1265 1097 -1374
1910 -23 173 -31 270 -23 270 4 0 107 -100 229 -222 l223 -223 600 600 600
600 758 -758 757 -757 1715 1715 c943 943 1718 1715 1722 1715 5 0 8 -243 8
-540 l0 -540 353 2 352 3 0 1150 0 1150 -1121 3 c-616 1 -1124 -1 -1127 -5z"/>
</g>
</svg>
