<?xml version="1.0" standalone="no"?>
<!DOCTYPE svg PUBLIC "-//W3C//DTD SVG 20010904//EN"
 "http://www.w3.org/TR/2001/REC-SVG-20010904/DTD/svg10.dtd">
<svg version="1.0" xmlns="http://www.w3.org/2000/svg"
 width="512.000000pt" height="512.000000pt" viewBox="0 0 512.000000 512.000000"
 preserveAspectRatio="xMidYMid meet">

<g transform="translate(0.000000,512.000000) scale(0.100000,-0.100000)"
fill="#000000" stroke="none">
<path d="M1488 4895 c-53 -20 -120 -68 -152 -109 -63 -83 -61 -56 -66 -695
l-5 -584 -107 186 -108 186 24 36 c34 50 49 124 35 183 -25 117 -120 192 -241
192 -46 0 -51 3 -107 60 -146 149 -377 174 -550 59 -156 -104 -225 -298 -171
-482 l22 -75 -19 -29 c-73 -103 -46 -257 58 -332 44 -32 120 -54 169 -49 l32
3 398 -688 397 -688 86 -60 87 -60 2 -752 3 -752 24 -50 c32 -63 93 -124 156
-156 l50 -24 546 -3 c521 -2 547 -2 569 16 34 27 32 78 -4 109 l-27 23 -521 0
-521 0 -41 24 c-23 13 -51 42 -64 64 -21 38 -22 51 -22 246 l0 206 1305 0
1305 0 0 -182 c0 -242 -16 -295 -100 -338 -38 -19 -61 -20 -558 -20 -510 0
-520 0 -546 -21 -33 -26 -36 -79 -6 -109 20 -20 33 -20 555 -20 513 0 536 1
589 20 76 29 139 88 178 168 l33 67 3 562 3 563 445 0 445 0 24 25 c32 31 32
69 0 100 l-24 25 -446 0 -445 0 0 740 0 740 449 0 450 0 20 26 c28 35 26 69
-4 99 l-24 25 -445 0 -445 0 -3 643 -3 642 -33 67 c-39 80 -102 139 -178 168
-54 20 -72 20 -1247 19 -984 0 -1199 -3 -1229 -14z m2442 -155 c45 -23 73 -60
89 -115 7 -27 11 -234 11 -647 l0 -608 -285 0 -286 0 -24 -25 c-30 -30 -32
-64 -4 -98 l20 -27 287 -2 287 -3 3 -737 2 -738 -285 0 -286 0 -24 -25 c-32
-31 -32 -69 0 -100 l24 -25 286 0 285 0 -2 -268 -3 -267 -1302 -3 -1303 -2 0
396 c0 313 3 394 13 388 6 -4 59 -40 117 -79 129 -88 165 -102 226 -85 53 15
110 73 119 122 6 29 -38 652 -49 699 -2 10 -99 181 -215 382 l-211 366 0 698
0 698 24 39 c13 21 41 49 62 62 l39 24 1173 0 c1149 0 1174 0 1212 -20z
m-3383 -423 c44 -16 123 -74 123 -89 0 -7 -107 -74 -238 -149 -192 -111 -239
-134 -246 -122 -4 8 -10 41 -13 73 -15 161 114 301 277 299 36 0 79 -6 97 -12z
m375 -188 c26 -14 48 -67 41 -101 -3 -14 -15 -35 -27 -46 -28 -26 -644 -381
-674 -388 -33 -9 -81 14 -97 47 -21 40 -18 74 8 103 12 14 166 109 342 211
328 189 356 201 407 174z m353 -939 l344 -595 -35 -7 c-50 -11 -88 -33 -117
-68 l-26 -30 -54 92 c-30 51 -125 215 -211 364 -167 290 -181 307 -237 284
-15 -7 -33 -25 -40 -42 -15 -38 -22 -25 220 -443 l191 -330 -35 -7 c-51 -11
-89 -33 -118 -67 l-25 -31 -19 33 c-151 256 -674 1169 -672 1171 20 19 165 96
173 93 6 -3 40 -55 75 -117 71 -123 94 -145 141 -135 29 6 60 46 60 76 0 7
-32 68 -71 136 -40 68 -70 125 -68 127 18 15 166 95 172 93 5 -1 163 -270 352
-597z m421 -763 c3 -3 9 -52 14 -109 5 -56 12 -128 14 -160 l5 -56 -107 -63
c-59 -34 -112 -62 -118 -62 -6 0 -67 39 -137 88 -138 95 -143 103 -107 163 17
27 25 32 59 32 22 0 64 -9 92 -21 43 -16 57 -18 79 -9 28 11 50 46 50 78 0 35
22 94 42 114 16 16 29 19 65 15 24 -2 46 -7 49 -10z m53 -569 c1 -20 -3 -39
-8 -42 -4 -3 -29 9 -55 28 l-46 33 47 26 c54 29 61 25 62 -45z"/>
<path d="M2549 4562 c-33 -27 -30 -78 5 -109 26 -22 35 -23 161 -23 144 0 176
8 194 47 16 34 14 47 -10 77 l-20 26 -154 0 c-134 0 -156 -2 -176 -18z"/>
<path d="M2602 3925 c-206 -45 -374 -207 -427 -412 -19 -73 -19 -212 0 -283
63 -237 270 -405 515 -417 328 -18 594 235 594 562 0 156 -57 290 -168 400
-136 133 -329 190 -514 150z m223 -151 c158 -41 275 -169 305 -334 20 -112
-18 -248 -92 -333 l-33 -37 -43 34 c-69 56 -142 80 -242 80 -102 0 -174 -25
-240 -81 l-43 -37 -30 34 c-16 19 -43 64 -61 100 -29 61 -31 72 -31 175 0 99
3 116 27 168 85 182 292 281 483 231z m-42 -745 c23 -5 53 -18 66 -28 l24 -18
-53 -13 c-76 -18 -240 -5 -240 20 0 6 49 30 90 44 26 8 70 6 113 -5z"/>
<path d="M2625 3666 c-92 -43 -135 -112 -135 -213 1 -74 25 -129 80 -176 120
-102 296 -62 367 82 25 51 23 145 -4 196 -63 119 -193 166 -308 111z m151
-150 c58 -49 20 -146 -57 -146 -43 0 -79 39 -79 85 0 74 80 110 136 61z"/>
<path d="M2266 2571 c-50 -33 -55 -53 -55 -216 -1 -166 4 -186 58 -222 l34
-23 414 0 c455 0 461 1 496 59 25 42 25 329 1 367 -36 54 -39 54 -496 54 -401
0 -425 -1 -452 -19z m814 -221 l0 -90 -360 0 -360 0 0 90 0 90 360 0 360 0 0
-90z"/>
<path d="M2290 1887 c-41 -14 -80 -68 -80 -109 0 -36 40 -78 74 -78 13 0 38
11 54 25 l30 25 356 0 356 0 0 -90 0 -90 -666 -2 -666 -3 -19 -24 c-26 -32
-24 -73 4 -99 l23 -22 703 0 703 0 34 34 34 34 0 165 c0 163 0 166 -26 196
-14 17 -42 35 -62 41 -55 15 -807 12 -852 -3z"/>
<path d="M4507 3873 c-8 -10 -19 -30 -22 -45 -6 -22 -1 -33 23 -58 l30 -30
257 0 c205 0 262 3 284 15 46 23 54 66 20 109 l-20 26 -278 0 c-252 0 -279 -2
-294 -17z"/>
<path d="M4513 3615 c-11 -8 -24 -26 -27 -40 -7 -29 15 -79 39 -89 9 -3 136
-6 281 -6 l265 0 24 25 c14 13 25 36 25 50 0 14 -11 37 -25 50 l-24 25 -268 0
c-221 0 -272 -3 -290 -15z"/>
<path d="M4534 2260 c-26 -10 -54 -48 -54 -71 0 -9 9 -28 21 -43 l20 -26 278
0 c277 0 278 0 299 23 39 41 25 97 -29 116 -38 13 -503 14 -535 1z"/>
<path d="M4512 1983 c-12 -10 -24 -30 -28 -45 -5 -22 0 -34 25 -58 l30 -31
272 3 271 3 19 24 c25 30 24 62 -2 95 l-20 26 -274 0 c-245 0 -275 -2 -293
-17z"/>
<path d="M2635 821 c-128 -58 -164 -223 -72 -328 101 -115 283 -88 348 52 79
171 -104 354 -276 276z m127 -148 c37 -33 11 -103 -39 -103 -12 0 -32 9 -43
20 -55 55 24 135 82 83z"/>
</g>
</svg>
